<svg width="3383" height="2576" viewBox="0 0 3383 2576" fill="none" xmlns="http://www.w3.org/2000/svg">
<g clip-path="url(#clip0_6_117)">
<mask id="mask0_6_117" style="mask-type:alpha" maskUnits="userSpaceOnUse" x="-462" y="-731" width="4306" height="3845">
<path d="M3843.86 -730.018H-461.258V3113.84H3843.86V-730.018Z" fill="white"/>
</mask>
<g mask="url(#mask0_6_117)">
<path fill-rule="evenodd" clip-rule="evenodd" d="M2039.61 33.7686H3200.85C3240.88 33.254 3275.97 48.991 3306.11 80.9797C3327.31 103.478 3338.01 133.812 3338.2 171.982V1705.7C3337.35 1755.4 3326.65 1792.22 3306.11 1816.17C3285.57 1840.12 3253.36 1852.09 3209.48 1852.09H2017.81C1975.57 1852.09 1943.94 1840.12 1922.93 1816.17C1891.42 1780.25 1883.54 1727.59 1883.57 1706.65C1884.61 1065.39 1885.13 552.369 1885.13 167.577C1884.09 122.864 1896.69 87.9402 1922.93 62.8059C1944.41 42.236 1983.3 32.5569 2039.61 33.7686Z" stroke="#00B923" stroke-width="57.6579"/>
<path fill-rule="evenodd" clip-rule="evenodd" d="M2152.44 716.083C2180.24 716.083 2489.7 716.083 3080.83 716.083C3112.67 716.083 3137.88 720.936 3156.48 730.641C3175.07 740.347 3183.44 771.728 3181.6 824.786V1603.85C3185.94 1647.18 3177.57 1679.04 3156.48 1699.45C3135.38 1719.85 3110.17 1730.05 3080.83 1730.05H2147.94C2121.77 1733.05 2097.04 1727.08 2073.74 1712.15C2050.43 1697.22 2040.14 1669.01 2042.85 1627.53V824.786C2043.26 790.826 2053.55 763.835 2073.74 743.813C2098.25 719.495 2110.73 716.083 2152.44 716.083Z" stroke="#00B923" stroke-width="57.6579"/>
<path fill-rule="evenodd" clip-rule="evenodd" d="M2139.46 180.622H3087.85C3126.13 178.452 3151.52 182.21 3164 191.896C3180.86 204.98 3189.29 230.378 3189.29 268.091V507.619C3188.54 529.854 3180.12 546.958 3164 558.931C3147.89 570.903 3122.5 576.889 3087.85 576.889H2117.42C2084.24 578.234 2063.45 572.248 2055.08 558.931C2046.7 545.614 2043.05 528.51 2044.11 507.619V255.282C2044.11 225.518 2049.97 205.941 2061.7 196.551C2075.91 185.173 2101.83 179.863 2139.46 180.622Z" stroke="#00B923" stroke-width="57.6579"/>
<path d="M2934.62 440.707H3061.46" stroke="#00B923" stroke-width="38.4386"/>
<path d="M2419.46 716.44V1723.32" stroke="#00B923" stroke-width="38.4386"/>
<path d="M2803.84 716.44V1723.32" stroke="#00B923" stroke-width="38.4386"/>
<path d="M2045.13 1053.15H3185.59" stroke="#00B923" stroke-width="38.4386"/>
<path d="M2045.13 1360.66H3185.59" stroke="#00B923" stroke-width="38.4386"/>
<path d="M1870.73 1474.42H169.658C31.6473 1538.77 20.5063 1666.67 136.235 1858.13C251.964 2049.59 397.571 2179.03 573.056 2246.47C590.18 2333.43 612.069 2392.02 638.722 2422.24C678.702 2467.57 696.814 2472.93 792.402 2495.17C919.686 2524.79 1633.64 2524.79 1779.73 2495.17C1865.54 2477.77 1928.44 2466.82 1971.49 2300.05C2014.55 2133.29 2283.84 2122.05 2403.39 1858.13" stroke="#00B923" stroke-width="57.6579"/>
<path d="M574.18 2243H767.998" stroke="#00B923" stroke-width="57.6579"/>
<path d="M903.311 2243H1979.59" stroke="#00B923" stroke-width="57.6579"/>
<path d="M1861.48 1230.01C1692.16 1235.79 1587.66 1308.63 1547.98 1448.52" stroke="#00B923" stroke-width="38.4386"/>
<path d="M1772.69 926.455L1366.55 531.792C1199.48 719.609 1231.68 912.298 1463.14 1109.86" stroke="#00B923" stroke-width="57.6579"/>
<path d="M1880.05 836.748C1837.35 921.49 1762.86 949.289 1656.58 920.147C1591.45 902.289 1527.43 966.524 1508.73 1009.51C1490.02 1052.5 1504.26 1038.74 1485.15 1107.31C1455.02 1215.4 1396.64 1181.61 1296.67 1259.3C1196.7 1337 1229.93 1455.22 1229.93 1476.39" stroke="#00B923" stroke-width="57.6579"/>
<path d="M685.596 1053.78C670.381 1054.47 656.976 1054.47 645.379 1053.78C599.055 1051.06 566.74 1063.78 545.044 1053.78C500.28 1033.17 505.556 961.279 423.535 961.279C341.515 961.279 343.959 965.879 251.764 1014.33C159.57 1062.78 168.753 975.653 77.9865 1053.78C-12.7802 1131.92 113.473 1238.36 141.113 1256.3C168.753 1274.24 86.6941 1365.88 204.085 1464.95" stroke="#00B923" stroke-width="57.6579"/>
<path d="M628.945 1472.67C561.812 1151.57 657.523 975.492 916.079 944.443C1303.91 897.869 1305.52 1266.24 1305.52 1266.24" stroke="#00B923" stroke-width="38.4386"/>
<path d="M450.305 949.369C535.64 801.59 663.914 727.701 835.128 727.701" stroke="#00B923" stroke-width="57.6579"/>
<path d="M1058.79 721.174C1138.98 680.378 1207.05 680.378 1262.99 721.174" stroke="#00B923" stroke-width="57.6579"/>
<path fill-rule="evenodd" clip-rule="evenodd" d="M945.001 619.841L1066.32 747.621C1085.56 795.871 1081.88 831.214 1055.29 853.649C1020.43 883.052 988.156 877.496 958.071 853.649C914.553 819.155 868.557 771.75 820.085 711.434C799.753 677.481 807.621 646.95 843.689 619.841C879.758 592.733 913.528 592.733 945.001 619.841Z" stroke="#00B923" stroke-width="57.6579"/>
<path fill-rule="evenodd" clip-rule="evenodd" d="M334.8 1300.01L456.055 1172.16C503.231 1150.43 538.718 1152.25 562.515 1177.64C593.701 1210.91 589.39 1247.52 562.515 1275.33C524.942 1314.22 478.151 1361.81 422.142 1418.1C392.873 1437.03 363.758 1429.19 334.8 1394.59C305.841 1359.99 305.841 1328.46 334.8 1300.01Z" stroke="#00B923" stroke-width="38.4386"/>
<path d="M1427.26 710.49V779.157" stroke="#00B923" stroke-width="38.4386"/>
<path d="M1422.23 884.402L1518.33 980.499" stroke="#00B923" stroke-width="38.4386"/>
<path d="M1537.55 845.964L1619.9 931.577" stroke="#00B923" stroke-width="38.4386"/>
<path d="M966.147 1084.83V1192.89C1052.94 1226.08 1085.72 1274.52 1064.47 1338.22C1032.6 1433.76 835.934 1433.76 861.532 1279.77" stroke="#00B923" stroke-width="38.4386"/>
<path d="M1071.48 1143.66L1121.07 1195.58" stroke="#00B923" stroke-width="38.4386"/>
<path d="M857.077 1153.75L806.913 1205.13" stroke="#00B923" stroke-width="38.4386"/>
<path d="M1153.56 1268.79L1153.16 1340.59" stroke="#00B923" stroke-width="38.4386"/>
<path d="M769.171 1268.79L768.774 1340.59" stroke="#00B923" stroke-width="38.4386"/>
<path d="M787.318 1409.29L839.561 1458.55" stroke="#00B923" stroke-width="38.4386"/>
<path d="M1128.54 1422.54L1076.29 1471.8" stroke="#00B923" stroke-width="38.4386"/>
</g>
</g>
<defs>
<clipPath id="clip0_6_117">
<rect width="3382.59" height="2575.38" fill="white" transform="translate(0 0.31543)"/>
</clipPath>
</defs>
</svg>
