<svg width="3725" height="2595" viewBox="0 0 3725 2595" fill="none" xmlns="http://www.w3.org/2000/svg">
<g clip-path="url(#clip0_6_157)">
<mask id="mask0_6_157" style="mask-type:alpha" maskUnits="userSpaceOnUse" x="0" y="-432" width="3725" height="3426">
<path d="M3724.3 -431.296H0V2993.73H3724.3V-431.296Z" fill="white"/>
</mask>
<g mask="url(#mask0_6_157)">
<path fill-rule="evenodd" clip-rule="evenodd" d="M2235.79 2012.01C2290.21 2279.72 2333.78 2435.5 2366.49 2479.37C2415.57 2545.16 2495.58 2545.16 2584.38 2479.37C2673.18 2413.57 2891.37 1327.33 2900.35 1123.44C2909.33 919.547 2797.39 797.531 2687.08 744.454C2576.76 691.377 2428.89 667.414 2280.54 744.454C2132.18 821.494 2067.09 1011.95 2067.09 1123.44C2067.09 1234.93 2156.54 1489 2132.86 1418.01C2120.87 1382.06 2017.62 1304.71 1916.6 1279.86C1818.12 1255.64 1643.01 1271.69 1630.04 1312.42C1621.42 1339.52 1621.42 1475.52 1590.29 1475.52C1583.76 1475.52 1546.63 1496.33 1546.63 1475.52C1546.63 1454.7 1536.96 1414.53 1523.18 1333.39C1509.41 1252.24 994.664 1190.57 860.108 1614.84C725.553 2039.11 1088.61 2537.96 1559.64 2537.96C1873.66 2537.96 2099.04 2362.64 2235.79 2012.01Z" stroke="#00B923" stroke-width="49.8791" stroke-linecap="round" stroke-linejoin="round"/>
<path d="M831.993 1658.06H12.2754" stroke="#00B923" stroke-width="33.2527"/>
<path d="M3707.83 1663.62H2826.48" stroke="#00B923" stroke-width="33.2527"/>
<path d="M2061.67 1630.37C2108.86 1795.07 2108.86 1939.35 2061.67 2063.21" stroke="#00B923" stroke-width="33.2527"/>
<path d="M1928.66 1457.06C1968.2 1473.17 1994.4 1493.64 2007.27 1518.48" stroke="#00B923" stroke-width="33.2527"/>
<path d="M1725.83 1423.94C1577.66 1537.27 1518.42 1513.06 1409.47 1423.94" stroke="#00B923" stroke-width="49.8791"/>
<path d="M2272.24 735.88L2177.4 28.6079H2356.96C2386.27 485.443 2406.26 710.425 2416.91 703.552C2432.89 693.244 2566 684.796 2566 703.552C2566 716.056 2566 549.414 2566 203.625H2742.37L2690.14 735.88" stroke="#00B923" stroke-width="49.8791"/>
<path d="M2378.68 284.806H2562.29" stroke="#00B923" stroke-width="49.8791"/>
<path d="M2497.66 1348.34H2868.73" stroke="#00B923" stroke-width="33.2527"/>
<path d="M2431.15 1780.63H2802.22" stroke="#00B923" stroke-width="33.2527"/>
<path d="M2643.59 1514.6H2835.43" stroke="#00B923" stroke-width="33.2527"/>
<path d="M2533.7 1929.65H2765.3" stroke="#00B923" stroke-width="33.2527"/>
<path d="M1603.7 1471.64C1630.86 1221.34 1705.99 953.518 1731.41 861.379C1756.84 769.239 1535.36 769.239 1490.21 817.08C1460.12 848.973 1477.75 1067.16 1543.11 1471.64" stroke="#00B923" stroke-width="49.8791"/>
<path d="M1152.48 942.911L1493.9 1184.96" stroke="#00B923" stroke-width="33.2527"/>
<path d="M1488.27 1084.32C1426.63 847.38 1269.76 750.19 1017.66 792.749C1004.37 794.991 982.444 791.324 981.689 800.797C955.892 1124.74 1296.8 1250.06 1488.27 1226.81" stroke="#00B923" stroke-width="49.8791"/>
</g>
</g>
<defs>
<clipPath id="clip0_6_157">
<rect width="3724.3" height="2593.71" fill="white" transform="translate(0 0.98877)"/>
</clipPath>
</defs>
</svg>
