<svg width="2921" height="3166" viewBox="0 0 2921 3166" fill="none" xmlns="http://www.w3.org/2000/svg">
<path d="M1465.43 1257.88H513.902C460.402 1257.88 411.732 1279.79 376.448 1315.08C341.164 1350.36 319.258 1399.03 319.258 1452.53V2384.23C319.258 2437.74 341.164 2486.4 376.448 2521.69C411.732 2556.97 460.402 2578.88 513.902 2578.88H705.625V2625.71H513.902C447.482 2625.71 387.093 2598.54 343.343 2554.79C299.597 2511.04 272.432 2450.66 272.432 2384.23V1452.53C272.432 1386.11 299.597 1325.72 343.343 1281.97C387.093 1238.22 447.482 1211.06 513.902 1211.06H1465.43C1531.85 1211.06 1592.24 1238.22 1635.99 1281.97C1679.74 1325.72 1706.9 1386.11 1706.9 1452.53V2384.23C1706.9 2450.66 1679.74 2511.04 1635.99 2554.79C1592.24 2598.54 1531.85 2625.71 1465.43 2625.71H1195.24V2578.88H1465.43C1518.94 2578.88 1567.6 2556.97 1602.88 2521.69C1638.16 2486.4 1660.07 2437.74 1660.07 2384.23V1452.53C1660.07 1399.03 1638.16 1350.36 1602.88 1315.08C1567.6 1279.79 1518.94 1257.88 1465.43 1257.88V1257.88Z" fill="#00B923"/>
<path d="M954.969 2307.95C1031.22 2307.95 1100.27 2338.87 1150.24 2388.85C1200.21 2438.81 1231.13 2507.88 1231.13 2584.12C1231.13 2660.37 1200.21 2729.42 1150.24 2779.39C1100.27 2829.36 1031.22 2860.28 954.969 2860.28C878.728 2860.28 809.667 2829.36 759.701 2779.39C709.728 2729.42 678.81 2660.37 678.81 2584.12C678.81 2507.88 709.728 2438.81 759.701 2388.85C809.667 2338.87 878.728 2307.95 954.969 2307.95ZM1117.14 2421.95C1075.65 2380.45 1018.31 2354.78 954.969 2354.78C891.641 2354.78 834.291 2380.45 792.806 2421.95C751.309 2463.44 725.636 2520.79 725.636 2584.12C725.636 2647.45 751.309 2704.79 792.806 2746.28C834.291 2787.78 891.641 2813.45 954.969 2813.45C1018.31 2813.45 1075.65 2787.78 1117.14 2746.28C1158.63 2704.79 1184.3 2647.45 1184.3 2584.12C1184.3 2520.79 1158.63 2463.44 1117.14 2421.95Z" fill="#00B923"/>
<path d="M2132.82 2307.95C2209.07 2307.95 2278.12 2338.87 2328.09 2388.85C2378.07 2438.81 2408.99 2507.88 2408.99 2584.12C2408.99 2660.37 2378.07 2729.42 2328.09 2779.39C2278.12 2829.36 2209.07 2860.28 2132.82 2860.28C2056.58 2860.28 1987.52 2829.36 1937.55 2779.39C1887.58 2729.42 1856.66 2660.37 1856.66 2584.12C1856.66 2507.88 1887.58 2438.81 1937.55 2388.85C1987.52 2338.87 2056.58 2307.95 2132.82 2307.95ZM2294.99 2421.95C2253.5 2380.45 2196.16 2354.78 2132.82 2354.78C2069.49 2354.78 2012.15 2380.45 1970.66 2421.95C1929.16 2463.44 1903.49 2520.79 1903.49 2584.12C1903.49 2647.45 1929.16 2704.79 1970.66 2746.28C2012.15 2787.78 2069.49 2813.45 2132.82 2813.45C2196.16 2813.45 2253.5 2787.78 2294.99 2746.28C2336.48 2704.79 2362.16 2647.45 2362.16 2584.12C2362.16 2520.79 2336.48 2463.44 2294.99 2421.95Z" fill="#00B923"/>
<path d="M404.482 1627.64V2243.82H379.506V1627.64H404.482Z" fill="#00B923"/>
<path d="M404.482 2322.22V2431.73C404.482 2456.84 414.392 2472.44 429.705 2481.7C446.551 2491.89 470.079 2495.44 494.873 2495.63L494.77 2520.5C465.868 2520.29 437.96 2515.84 416.833 2503.07C394.17 2489.37 379.506 2467 379.506 2431.73V2322.22H404.482Z" fill="#00B923"/>
<path d="M1007.87 2452.65C999.399 2449.12 990.538 2446.42 981.474 2444.61C972.466 2442.81 963.262 2441.9 954.013 2441.9C915.361 2441.9 880.353 2457.58 855.027 2482.9C829.679 2508.19 814.026 2543.2 814.026 2581.89C814.026 2620.58 829.679 2655.58 854.979 2680.87L855.027 2680.92C880.32 2706.22 915.324 2721.87 954.013 2721.87C992.706 2721.87 1027.71 2706.22 1053 2680.92L1053.05 2680.87C1078.35 2655.58 1094 2620.58 1094 2581.89C1094 2573.83 1093.32 2565.84 1091.97 2558.04C1090.62 2550.18 1088.58 2542.43 1085.9 2534.9L1109.42 2526.61C1112.57 2535.47 1114.96 2544.59 1116.56 2553.84C1118.16 2563.14 1118.98 2572.52 1118.98 2581.89C1118.98 2627.38 1100.51 2668.61 1070.66 2698.48L1070.61 2698.53C1040.74 2728.38 999.506 2746.85 954.013 2746.85C908.524 2746.85 867.29 2728.38 837.42 2698.53L837.372 2698.48C807.521 2668.61 789.054 2627.38 789.054 2581.89C789.054 2536.39 807.529 2495.14 837.398 2465.27C867.216 2435.4 908.461 2416.92 954.013 2416.92C964.883 2416.92 975.735 2418.01 986.357 2420.13C996.928 2422.24 1007.35 2425.42 1017.44 2429.63L1007.87 2452.65V2452.65Z" fill="#00B923"/>
<path d="M1994.03 2563.29C1992.82 2572.42 1992.5 2581.69 1993.1 2590.91C1993.68 2600.03 1995.19 2609.16 1997.59 2618.13C2007.61 2655.5 2031.79 2685.26 2062.78 2703.15C2093.8 2721.06 2131.69 2727.13 2169.07 2717.12C2206.43 2707.1 2236.2 2682.92 2254.09 2651.93C2271.99 2620.91 2278.06 2583.02 2268.05 2545.64C2258.04 2508.27 2233.86 2478.51 2202.86 2460.62C2171.84 2442.72 2133.95 2436.65 2096.58 2446.66C2088.82 2448.73 2081.29 2451.46 2074.09 2454.79C2066.81 2458.15 2059.85 2462.12 2053.32 2466.62L2039.17 2446.12C2046.98 2440.74 2055.18 2436.06 2063.65 2432.14C2072.2 2428.2 2081.06 2424.99 2090.14 2422.56C2134.09 2410.78 2178.69 2417.95 2215.25 2439.06C2251.84 2460.18 2280.37 2495.24 2292.15 2539.2C2303.93 2583.15 2296.75 2627.75 2275.65 2664.31C2254.53 2700.9 2219.47 2729.43 2175.51 2741.22C2131.56 2752.99 2086.96 2745.82 2050.39 2724.71C2013.81 2703.59 1985.27 2668.54 1973.49 2624.58C1970.69 2614.1 1968.92 2603.34 1968.23 2592.48C1967.53 2581.74 1967.91 2570.86 1969.35 2560.07L1994.03 2563.29V2563.29Z" fill="#00B923"/>
<path d="M1683.49 1480.69H2206.66C2238.65 1480.69 2260.48 1483.91 2279.22 1494.95C2298.33 1506.2 2311.23 1523.66 2324.98 1551.88L2648.24 2214.9L2648.35 2473.23L2647.25 2476.6C2626.77 2539.67 2602.85 2576.73 2566.35 2598.84C2530.55 2620.52 2485.73 2625.71 2422.06 2625.71H2382.16V2578.88H2422.06C2477.65 2578.88 2515.67 2575.03 2542.2 2558.97C2567.47 2543.66 2585.21 2515.17 2601.71 2465.48L2601.61 2226.03L2282.91 1572.37C2273.23 1552.5 2265.35 1540.93 2255.62 1535.2C2245.53 1529.26 2230.42 1527.52 2206.66 1527.52H1706.9V2384.23C1706.9 2442.32 1686.09 2495.81 1651.57 2537.61C1638.78 2553.09 1624.09 2566.96 1607.86 2578.88H1883.48V2625.71H1483.2V2579.06L1502.23 2575.39C1547.39 2566.67 1587.17 2542.12 1615.53 2507.79C1643.32 2474.14 1660.07 2431.05 1660.07 2384.23L1660.07 1480.69H1683.49V1480.69Z" fill="#00B923"/>
<path d="M2633.26 2180.68H1995.6V2235.19H2633.26V2180.68Z" fill="#00B923"/>
<path d="M345.301 2844.03H2555.62V2875.24H345.301V2844.03Z" fill="#00B923"/>
<path d="M1068.85 521.36C1082.75 521.36 1096.45 522.568 1109.83 524.869C1118.27 526.32 1126.52 528.204 1134.57 530.49C1159.27 464.513 1200.92 408.01 1253.58 367.488C1308.84 324.969 1376.17 300 1448.8 300C1518.99 300 1584.22 323.299 1638.36 363.222C1690.04 401.321 1731.61 454.618 1757.71 517.208C1768.31 513.914 1779.21 511.24 1790.37 509.241C1806.46 506.353 1822.84 504.839 1839.34 504.839C1911.69 504.839 1977.28 532.736 2024.81 577.83C2072.54 623.108 2102.07 685.706 2102.07 754.871C2102.07 824.039 2072.54 886.637 2024.81 931.915C1977.28 977.009 1911.69 1004.9 1839.34 1004.9C1805.91 1004.9 1773.89 998.934 1744.43 988.064C1718.49 978.494 1694.56 965.131 1673.4 948.717C1644.65 976.47 1611.57 998.986 1575.43 1014.86C1536.26 1032.08 1493.51 1041.55 1448.8 1041.55C1401.73 1041.55 1356.86 1031.05 1316.04 1012.08C1278.27 994.516 1243.99 969.652 1214.69 939.129C1196.17 953.419 1175.45 965.057 1153.13 973.438C1126.81 983.296 1098.4 988.695 1068.85 988.695C1003.49 988.695 944.292 962.56 901.406 920.314C858.451 878.001 831.876 819.551 831.876 755.029C831.876 690.508 858.451 632.054 901.406 589.741C944.292 547.495 1003.49 521.36 1068.85 521.36V521.36ZM1104.59 555.602C1093.06 553.615 1081.12 552.577 1068.85 552.577C1011.94 552.577 960.458 575.263 923.235 611.932C886.086 648.524 863.094 699.128 863.094 755.029C863.094 810.927 886.086 861.532 923.235 898.127C960.458 934.796 1011.94 957.478 1068.85 957.478C1094.77 957.478 1119.48 952.813 1142.16 944.311C1165.81 935.406 1187.38 922.353 1205.91 906.068L1217.54 895.848L1227.81 907.472C1256.36 939.827 1290.75 965.958 1329.09 983.787C1365.86 1000.88 1406.32 1010.34 1448.8 1010.34C1489.14 1010.34 1527.63 1001.81 1562.87 986.328C1599.63 970.176 1632.91 946.457 1661.08 916.949L1671.38 906.149L1682.61 915.915C1703.62 934.19 1728.17 948.835 1755.16 958.796C1781.2 968.403 1809.6 973.685 1839.34 973.685C1903.46 973.685 1961.45 949.094 2003.34 909.352C2045.05 869.787 2070.85 815.167 2070.85 754.871C2070.85 694.578 2045.05 639.958 2003.34 600.393C1961.45 560.651 1903.46 536.06 1839.34 536.06C1824.24 536.06 1809.7 537.364 1795.85 539.849C1781.44 542.428 1767.48 546.291 1754.12 551.292L1739.55 556.744L1734.12 542.147C1710.72 479.209 1670.64 425.716 1619.94 388.346C1571.02 352.278 1512.13 331.218 1448.8 331.218C1383.24 331.218 1322.47 353.752 1272.6 392.124C1221.01 431.822 1180.93 488.506 1159.06 554.834L1154.05 570.025L1139 564.655C1127.87 560.685 1116.36 557.623 1104.59 555.602V555.602Z" fill="#00B923"/>
</svg>
